HIERARCHY
ROOT Hips
{
	OFFSET 0.000000 88.474243 0.000000
	CHANNELS 6 Xposition Yposition Zposition Zrotation Yrotation Xrotation 
	JOINT Hips_Spine
	{
		OFFSET 0.000000 0.000000 0.000000
		CHANNELS 3 Zrotation Yrotation Xrotation
		JOINT Spine
		{
			OFFSET 0.005100 8.711998 -0.691000
			CHANNELS 3 Zrotation Yrotation Xrotation
			JOINT Spine1
			{
				OFFSET -0.009200 8.660301 -1.275000
				CHANNELS 3 Zrotation Yrotation Xrotation
				JOINT Spine2
				{
					OFFSET 0.006300 9.852501 -1.857000
					CHANNELS 3 Zrotation Yrotation Xrotation
					JOINT Spine2_Neck
					{
						OFFSET 0.000000 0.000000 0.000000
						CHANNELS 3 Zrotation Yrotation Xrotation
						JOINT Neck
						{
							OFFSET 0.016300 11.420799 -0.263300
							CHANNELS 3 Zrotation Yrotation Xrotation
							End Site #name: Head
							{
								OFFSET -0.019200 9.262405 2.362500
							}
						}
					}
					JOINT Spine2_LeftShoulder
					{
						OFFSET 0.000000 0.000000 0.000000
						CHANNELS 3 Zrotation Yrotation Xrotation
						JOINT LeftShoulder
						{
							OFFSET 5.616900 6.732201 -0.345700
							CHANNELS 3 Zrotation Yrotation Xrotation
							JOINT LeftArm
							{
								OFFSET 10.664888 -0.183372 -2.440700
								CHANNELS 3 Zrotation Yrotation Xrotation
								JOINT LeftForeArm
								{
									OFFSET 27.459126 0.000000 0.000000
									CHANNELS 3 Zrotation Yrotation Xrotation
									End Site #name: LeftHand
									{
										OFFSET 21.306858 0.000000 0.000000
									}
								}
							}
						}
					}
					JOINT Spine2_RightShoulder
					{
						OFFSET 0.000000 0.000000 0.000000
						CHANNELS 3 Zrotation Yrotation Xrotation
						JOINT RightShoulder
						{
							OFFSET -5.580300 6.737503 -0.344400
							CHANNELS 3 Zrotation Yrotation Xrotation
							JOINT RightArm
							{
								OFFSET -10.679335 -0.188484 -2.383900
								CHANNELS 3 Zrotation Yrotation Xrotation
								JOINT RightForeArm
								{
									OFFSET -27.503529 0.000000 0.000000
									CHANNELS 3 Zrotation Yrotation Xrotation
									End Site #name: RightHand
									{
										OFFSET -21.306808 0.000000 0.000000
									}
								}
							}
						}
					}
				}
			}
		}
	}
	JOINT Hips_LeftUpLeg
	{
		OFFSET 0.000000 0.000000 0.000000
		CHANNELS 3 Zrotation Yrotation Xrotation
		JOINT LeftUpLeg
		{
			OFFSET 6.857700 -6.739601 0.312100
			CHANNELS 3 Zrotation Yrotation Xrotation
			JOINT LeftLeg
			{
				OFFSET -0.367590 -34.731552 -4.572400
				CHANNELS 3 Zrotation Yrotation Xrotation
				End Site #name: LeftFoot
				{
					OFFSET 0.367590 -34.656704 -6.067400
				}
			}
		}
	}
	JOINT Hips_RightUpLeg
	{
		OFFSET 0.000000 0.000000 0.000000
		CHANNELS 3 Zrotation Yrotation Xrotation
		JOINT RightUpLeg
		{
			OFFSET -6.876100 -6.733299 0.301000
			CHANNELS 3 Zrotation Yrotation Xrotation
			JOINT RightLeg
			{
				OFFSET 0.347353 -34.795158 -4.515900
				CHANNELS 3 Zrotation Yrotation Xrotation
				End Site #name: RightFoot
				{
					OFFSET -0.347353 -34.589367 -6.070300
				}
			}
		}
	}
}
MOTION
Frames: 9
Frame Time: 0.041667
0.576738 0.203984 0.563109 -3.449704 38.323889 -9.950237 -0.000000 0.000000 0.000000 1.101298 -1.801651 -5.873021 2.469440 -1.632506 -3.560230 0.000000 0.000000 0.000000 2.951913 -1.128109 -3.802778 3.676328 -3.013253 -4.671438 1.898584 -1.469293 -4.117800 -22.253334 2.173889 8.844594 -49.847545 12.644634 12.758532 -0.563138 -18.422008 7.897416 1.929979 -1.145299 -1.768086 8.766416 7.186004 1.683801 61.481609 0.669028 -8.805951 0.555843 47.505793 -0.780951 0.000000 -0.000000 -0.000000 -5.518868 21.870122 -1.822909 -1.028606 5.184236 17.474141 0.000000 0.000000 0.000000 -3.416176 -0.204518 -14.863937 5.442784 2.092127 11.921788 
0.349813 0.174017 0.714487 -4.533914 40.068349 -10.935553 -0.000000 0.000000 0.000000 1.984540 -1.613960 -6.152698 2.625071 -1.621467 -3.525206 0.000000 0.000000 0.000000 3.073843 -1.070161 -3.759312 3.597698 -2.947151 -4.484565 2.074025 -1.421150 -4.023749 -21.759568 2.085926 8.895283 -50.489371 13.676931 12.157888 -0.593997 -19.066751 7.722451 2.082197 -1.086787 -1.761634 8.954099 7.306753 1.736128 61.422977 0.593750 -8.733080 0.558088 47.556190 -0.790553 0.000000 -0.000000 -0.000000 -4.605400 21.975682 -1.755832 -1.177191 4.934838 17.714371 0.000000 -0.000000 0.000000 -2.447664 -0.413335 -15.057852 5.219178 0.696313 11.987188 
0.155145 0.143673 0.873880 -5.548281 41.768814 -11.855883 -0.000000 0.000000 0.000000 2.638668 -1.275159 -6.396861 2.752808 -1.617007 -3.459601 0.000000 0.000000 0.000000 3.172176 -1.012016 -3.698434 3.556711 -2.909858 -4.207484 2.220718 -1.378746 -3.921267 -21.273283 2.016832 8.925215 -51.140839 14.659672 11.582621 -0.628126 -19.825630 7.537103 2.211317 -1.035030 -1.743610 9.135542 7.422727 1.783999 61.377649 0.552089 -8.640343 0.562098 47.601250 -0.796689 -0.000000 -0.000000 -0.000000 -3.800841 21.998168 -1.326170 -1.309317 4.587156 17.597262 0.000000 -0.000000 0.000000 -1.534813 -0.612615 -15.262923 5.079635 -0.320351 12.184675 
-0.000130 0.111047 1.034197 -6.392020 43.236742 -12.629232 -0.000000 -0.000000 0.000000 3.141012 -1.016310 -6.510900 2.860692 -1.607883 -3.387619 0.000000 0.000000 0.000000 3.253202 -0.959119 -3.632831 3.536208 -2.940129 -3.775993 2.338006 -1.340934 -3.814217 -20.802932 1.940516 8.932882 -51.805392 15.549232 11.065653 -0.665676 -20.605228 7.350925 2.313728 -0.987056 -1.714333 9.280605 7.552241 1.826690 61.345028 0.538417 -8.512872 0.570166 47.597587 -0.798639 -0.000000 -0.000000 -0.000000 -3.096154 21.963179 -0.713235 -1.471343 4.217181 17.156212 0.000000 -0.000000 0.000000 -0.706875 -0.704469 -15.490158 4.979872 -1.166647 12.481681 
-0.108737 0.076812 1.193540 -7.057967 44.271402 -13.259722 -0.000000 -0.000000 0.000000 3.509791 -0.847914 -6.497424 2.947723 -1.600829 -3.315787 0.000000 0.000000 0.000000 3.319599 -0.913753 -3.564731 3.498348 -3.008700 -3.197725 2.435380 -1.307780 -3.704264 -20.354250 1.858952 8.930663 -52.478421 16.340857 10.603237 -0.703312 -21.334575 7.190475 2.397628 -0.947374 -1.679915 9.386476 7.706058 1.867121 61.327077 0.548207 -8.348393 0.581633 47.593514 -0.798507 -0.000000 -0.000000 -0.000000 -2.444208 21.942111 -0.061237 -1.702591 3.795581 16.676723 0.000000 -0.000000 0.000000 0.011919 -0.670910 -15.735747 4.883786 -2.009836 12.850263 
-0.164463 0.042501 1.351274 -7.501410 44.823546 -13.689952 -0.000000 -0.000000 0.000000 3.769070 -0.774554 -6.425026 3.020580 -1.597272 -3.232815 0.000000 0.000000 0.000000 3.375723 -0.873369 -3.487000 3.391546 -3.095600 -2.532929 2.517891 -1.279431 -3.591430 -19.933412 1.769150 8.919018 -53.118865 17.010601 10.209571 -0.746898 -21.988858 7.052596 2.472969 -0.918343 -1.640613 9.481044 7.897639 1.911388 61.317176 0.585748 -8.199300 0.594340 47.651666 -0.797222 -0.000000 -0.000000 -0.000000 -1.872218 21.861275 0.543462 -1.939329 3.513534 16.331384 0.000000 -0.000000 0.000000 0.614624 -0.513161 -16.005597 4.804429 -2.848980 13.276777 
-0.159835 0.008163 1.506718 -7.716231 44.932158 -13.916966 -0.000000 -0.000000 0.000000 3.974847 -0.767220 -6.299493 3.087593 -1.592175 -3.147628 0.000000 0.000000 0.000000 3.423523 -0.836084 -3.396324 3.231818 -3.184044 -1.813262 2.594750 -1.256836 -3.468891 -19.575395 1.670654 8.899065 -53.609068 17.273805 9.740379 -0.800031 -22.531977 6.960230 2.535491 -0.892910 -1.595165 9.570604 8.093200 1.952295 61.281776 0.651126 -8.080000 0.609048 47.797452 -0.795153 -0.000000 -0.000000 -0.000000 -1.429951 21.694551 1.107061 -2.167668 3.296929 16.092228 0.000000 -0.000000 0.000000 1.097317 -0.287342 -16.274438 4.786417 -3.611854 13.756357 
-0.087458 -0.026688 1.656838 -7.704059 44.588124 -13.933790 -0.000000 -0.000000 0.000000 4.143957 -0.824070 -6.167151 3.146521 -1.590069 -3.044965 0.000000 0.000000 0.000000 3.461511 -0.804664 -3.298069 3.055721 -3.257241 -1.106980 2.662579 -1.235430 -3.343565 -19.283584 1.594070 8.858222 -54.034119 17.356939 9.446194 -0.863327 -22.957920 6.918807 2.588952 -0.872483 -1.543577 9.653516 8.311868 1.992176 61.225468 0.675308 -8.001715 0.629148 48.081268 -0.789040 -0.000000 -0.000000 -0.000000 -1.115993 21.427638 1.594594 -2.458477 2.991591 16.030217 0.000000 -0.000000 0.000000 1.461707 -0.053739 -16.521491 4.777387 -4.299020 14.278465 
0.057255 -0.061140 1.796182 -7.468284 43.728996 -13.740711 -0.000000 -0.000000 0.000000 4.275500 -0.943559 -6.027204 3.200664 -1.595329 -2.933991 0.000000 0.000000 0.000000 3.495014 -0.787388 -3.205107 2.859308 -3.303404 -0.420222 2.725732 -1.216035 -3.214977 -19.078663 1.552742 8.808665 -54.386673 17.302927 9.256867 -0.926776 -23.242805 6.900945 2.635037 -0.853916 -1.489500 9.694711 8.502052 2.024309 61.147234 0.704030 -7.895730 0.653542 48.458777 -0.776031 -0.000000 -0.000000 -0.000000 -0.959217 21.080523 2.009127 -2.867336 2.492554 16.220990 0.000000 -0.000000 0.000000 1.734056 0.211265 -16.714465 4.790675 -4.794218 14.830705 
